STARTFONT 2.1
COMMENT Exported by Fony v1.4.7
FONT Aldo the Apache
SIZE 45 96 96
FONTBOUNDINGBOX 26 44 0 -12
STARTPROPERTIES 6
COPYRIGHT ""
RESOLUTION_X 96
RESOLUTION_Y 96
FONT_ASCENT 33
FONT_DESCENT 12
DEFAULT_CHAR 0
ENDPROPERTIES
CHARS 256
STARTCHAR 000
ENCODING 0
SWIDTH 576 0
DWIDTH 8 0
BBX 0 0 0 0
BITMAP
ENDCHAR
STARTCHAR 001
ENCODING 1
SWIDTH 576 0
DWIDTH 8 0
BBX 7 29 1 -1
BITMAP
FE
FE
C0
C0
C0
C0
C0
C0
C0
C0
C0
C0
C0
C0
C0
C0
C0
C0
C0
C0
C0
C0
C0
C0
C0
C0
C0
FE
FE
ENDCHAR
STARTCHAR 002
ENCODING 2
SWIDTH 576 0
DWIDTH 8 0
BBX 0 0 0 0
BITMAP
ENDCHAR
STARTCHAR 003
ENCODING 3
SWIDTH 576 0
DWIDTH 8 0
BBX 7 29 1 -1
BITMAP
FE
FE
C0
C0
C0
C0
C0
C0
C0
C0
C0
C0
C0
C0
C0
C0
C0
C0
C0
C0
C0
C0
C0
C0
C0
C0
C0
FE
FE
ENDCHAR
STARTCHAR 004
ENCODING 4
SWIDTH 576 0
DWIDTH 8 0
BBX 7 29 1 -1
BITMAP
FE
FE
C0
C0
C0
C0
C0
C0
C0
C0
C0
C0
C0
C0
C0
C0
C0
C0
C0
C0
C0
C0
C0
C0
C0
C0
C0
FE
FE
ENDCHAR
STARTCHAR 005
ENCODING 5
SWIDTH 576 0
DWIDTH 8 0
BBX 7 29 1 -1
BITMAP
FE
FE
C0
C0
C0
C0
C0
C0
C0
C0
C0
C0
C0
C0
C0
C0
C0
C0
C0
C0
C0
C0
C0
C0
C0
C0
C0
FE
FE
ENDCHAR
STARTCHAR 006
ENCODING 6
SWIDTH 576 0
DWIDTH 8 0
BBX 7 29 1 -1
BITMAP
FE
FE
C0
C0
C0
C0
C0
C0
C0
C0
C0
C0
C0
C0
C0
C0
C0
C0
C0
C0
C0
C0
C0
C0
C0
C0
C0
FE
FE
ENDCHAR
STARTCHAR 007
ENCODING 7
SWIDTH 576 0
DWIDTH 8 0
BBX 7 29 1 -1
BITMAP
FE
FE
C0
C0
C0
C0
C0
C0
C0
C0
C0
C0
C0
C0
C0
C0
C0
C0
C0
C0
C0
C0
C0
C0
C0
C0
C0
FE
FE
ENDCHAR
STARTCHAR 008
ENCODING 8
SWIDTH 576 0
DWIDTH 8 0
BBX 7 29 1 -1
BITMAP
FE
FE
C0
C0
C0
C0
C0
C0
C0
C0
C0
C0
C0
C0
C0
C0
C0
C0
C0
C0
C0
C0
C0
C0
C0
C0
C0
FE
FE
ENDCHAR
STARTCHAR 009
ENCODING 9
SWIDTH 576 0
DWIDTH 8 0
BBX 0 0 0 0
BITMAP
ENDCHAR
STARTCHAR 010
ENCODING 10
SWIDTH 576 0
DWIDTH 8 0
BBX 0 0 0 0
BITMAP
ENDCHAR
STARTCHAR 011
ENCODING 11
SWIDTH 576 0
DWIDTH 8 0
BBX 7 29 1 -1
BITMAP
FE
FE
C0
C0
C0
C0
C0
C0
C0
C0
C0
C0
C0
C0
C0
C0
C0
C0
C0
C0
C0
C0
C0
C0
C0
C0
C0
FE
FE
ENDCHAR
STARTCHAR 012
ENCODING 12
SWIDTH 576 0
DWIDTH 8 0
BBX 0 0 0 0
BITMAP
ENDCHAR
STARTCHAR 013
ENCODING 13
SWIDTH 576 0
DWIDTH 8 0
BBX 0 0 0 0
BITMAP
ENDCHAR
STARTCHAR 014
ENCODING 14
SWIDTH 576 0
DWIDTH 8 0
BBX 7 29 1 -1
BITMAP
FE
FE
C0
C0
C0
C0
C0
C0
C0
C0
C0
C0
C0
C0
C0
C0
C0
C0
C0
C0
C0
C0
C0
C0
C0
C0
C0
FE
FE
ENDCHAR
STARTCHAR 015
ENCODING 15
SWIDTH 576 0
DWIDTH 8 0
BBX 7 29 1 -1
BITMAP
FE
FE
C0
C0
C0
C0
C0
C0
C0
C0
C0
C0
C0
C0
C0
C0
C0
C0
C0
C0
C0
C0
C0
C0
C0
C0
C0
FE
FE
ENDCHAR
STARTCHAR 016
ENCODING 16
SWIDTH 576 0
DWIDTH 8 0
BBX 7 29 1 -1
BITMAP
FE
FE
C0
C0
C0
C0
C0
C0
C0
C0
C0
C0
C0
C0
C0
C0
C0
C0
C0
C0
C0
C0
C0
C0
C0
C0
C0
FE
FE
ENDCHAR
STARTCHAR 017
ENCODING 17
SWIDTH 576 0
DWIDTH 8 0
BBX 7 29 1 -1
BITMAP
FE
FE
C0
C0
C0
C0
C0
C0
C0
C0
C0
C0
C0
C0
C0
C0
C0
C0
C0
C0
C0
C0
C0
C0
C0
C0
C0
FE
FE
ENDCHAR
STARTCHAR 018
ENCODING 18
SWIDTH 576 0
DWIDTH 8 0
BBX 7 29 1 -1
BITMAP
FE
FE
C0
C0
C0
C0
C0
C0
C0
C0
C0
C0
C0
C0
C0
C0
C0
C0
C0
C0
C0
C0
C0
C0
C0
C0
C0
FE
FE
ENDCHAR
STARTCHAR 019
ENCODING 19
SWIDTH 576 0
DWIDTH 8 0
BBX 7 29 1 -1
BITMAP
FE
FE
C0
C0
C0
C0
C0
C0
C0
C0
C0
C0
C0
C0
C0
C0
C0
C0
C0
C0
C0
C0
C0
C0
C0
C0
C0
FE
FE
ENDCHAR
STARTCHAR 020
ENCODING 20
SWIDTH 576 0
DWIDTH 8 0
BBX 7 29 1 -1
BITMAP
FE
FE
C0
C0
C0
C0
C0
C0
C0
C0
C0
C0
C0
C0
C0
C0
C0
C0
C0
C0
C0
C0
C0
C0
C0
C0
C0
FE
FE
ENDCHAR
STARTCHAR 021
ENCODING 21
SWIDTH 576 0
DWIDTH 8 0
BBX 7 29 1 -1
BITMAP
FE
FE
C0
C0
C0
C0
C0
C0
C0
C0
C0
C0
C0
C0
C0
C0
C0
C0
C0
C0
C0
C0
C0
C0
C0
C0
C0
FE
FE
ENDCHAR
STARTCHAR 022
ENCODING 22
SWIDTH 576 0
DWIDTH 8 0
BBX 7 29 1 -1
BITMAP
FE
FE
C0
C0
C0
C0
C0
C0
C0
C0
C0
C0
C0
C0
C0
C0
C0
C0
C0
C0
C0
C0
C0
C0
C0
C0
C0
FE
FE
ENDCHAR
STARTCHAR 023
ENCODING 23
SWIDTH 576 0
DWIDTH 8 0
BBX 7 29 1 -1
BITMAP
FE
FE
C0
C0
C0
C0
C0
C0
C0
C0
C0
C0
C0
C0
C0
C0
C0
C0
C0
C0
C0
C0
C0
C0
C0
C0
C0
FE
FE
ENDCHAR
STARTCHAR 024
ENCODING 24
SWIDTH 576 0
DWIDTH 8 0
BBX 7 29 1 -1
BITMAP
FE
FE
C0
C0
C0
C0
C0
C0
C0
C0
C0
C0
C0
C0
C0
C0
C0
C0
C0
C0
C0
C0
C0
C0
C0
C0
C0
FE
FE
ENDCHAR
STARTCHAR 025
ENCODING 25
SWIDTH 576 0
DWIDTH 8 0
BBX 7 29 1 -1
BITMAP
FE
FE
C0
C0
C0
C0
C0
C0
C0
C0
C0
C0
C0
C0
C0
C0
C0
C0
C0
C0
C0
C0
C0
C0
C0
C0
C0
FE
FE
ENDCHAR
STARTCHAR 026
ENCODING 26
SWIDTH 576 0
DWIDTH 8 0
BBX 7 29 1 -1
BITMAP
FE
FE
C0
C0
C0
C0
C0
C0
C0
C0
C0
C0
C0
C0
C0
C0
C0
C0
C0
C0
C0
C0
C0
C0
C0
C0
C0
FE
FE
ENDCHAR
STARTCHAR 027
ENCODING 27
SWIDTH 576 0
DWIDTH 8 0
BBX 7 29 1 -1
BITMAP
FE
FE
C0
C0
C0
C0
C0
C0
C0
C0
C0
C0
C0
C0
C0
C0
C0
C0
C0
C0
C0
C0
C0
C0
C0
C0
C0
FE
FE
ENDCHAR
STARTCHAR 028
ENCODING 28
SWIDTH 576 0
DWIDTH 8 0
BBX 0 0 0 0
BITMAP
ENDCHAR
STARTCHAR 029
ENCODING 29
SWIDTH 576 0
DWIDTH 8 0
BBX 0 0 0 0
BITMAP
ENDCHAR
STARTCHAR 030
ENCODING 30
SWIDTH 576 0
DWIDTH 8 0
BBX 0 0 0 0
BITMAP
ENDCHAR
STARTCHAR 031
ENCODING 31
SWIDTH 576 0
DWIDTH 8 0
BBX 0 0 0 0
BITMAP
ENDCHAR
STARTCHAR 032
ENCODING 32
SWIDTH 576 0
DWIDTH 8 0
BBX 0 0 0 0
BITMAP
ENDCHAR
STARTCHAR 033
ENCODING 33
SWIDTH 504 0
DWIDTH 7 0
BBX 5 25 1 0
BITMAP
F8
F8
F8
F8
F8
F8
F8
F8
F8
F8
70
70
70
70
70
70
70
70
00
00
F8
F8
F8
F8
F8
ENDCHAR
STARTCHAR 034
ENCODING 34
SWIDTH 864 0
DWIDTH 12 0
BBX 10 10 1 17
BITMAP
F3C0
F3C0
F3C0
F3C0
F3C0
F3C0
F3C0
F3C0
F3C0
F3C0
ENDCHAR
STARTCHAR 035
ENCODING 35
SWIDTH 1728 0
DWIDTH 24 0
BBX 22 25 1 0
BITMAP
01C3C0
03C3C0
03C3C0
03C3C0
03C3C0
03C380
03C380
7FFFFC
7FFFFC
FFFFFC
078780
078780
078780
078780
078780
FFFFF8
FFFFF8
FFFFF8
070F00
0F0F00
0F0F00
0F0F00
0F0F00
0F0F00
0F0E00
ENDCHAR
STARTCHAR 036
ENCODING 36
SWIDTH 1080 0
DWIDTH 15 0
BBX 13 29 1 -2
BITMAP
0780
0780
FFF8
FFF8
FFF8
FFF8
FFF8
F878
F878
F800
F800
FE00
7F00
3F80
1FE0
07F0
03F8
01F8
00F8
F8F8
F8F8
F8F8
FFF8
FFF8
FFF8
FFF8
FFF8
0780
0780
ENDCHAR
STARTCHAR 037
ENCODING 37
SWIDTH 1800 0
DWIDTH 25 0
BBX 22 25 1 0
BITMAP
3F8020
7F8038
7F8070
F380E0
F381C0
F381C0
F38380
F38700
F38E00
F38E00
FF1C00
FF3800
FE7000
0071FC
00E3FC
01C7FC
03871C
03871C
07071C
0E071C
0C071C
1C071C
3807FC
7007F8
2007F0
ENDCHAR
STARTCHAR 038
ENCODING 38
SWIDTH 1656 0
DWIDTH 23 0
BBX 20 19 1 3
BITMAP
01F800
01F800
01F800
01F800
01F800
01F800
FFFFF0
FFFFF0
FFFFF0
FFFFF0
FFFFF0
FFFFF0
01FFE0
01FF80
01FE00
01F800
01E000
01C000
010000
ENDCHAR
STARTCHAR 039
ENCODING 39
SWIDTH 432 0
DWIDTH 6 0
BBX 4 10 1 17
BITMAP
F0
F0
F0
F0
F0
F0
F0
F0
F0
F0
ENDCHAR
STARTCHAR 040
ENCODING 40
SWIDTH 720 0
DWIDTH 10 0
BBX 8 30 1 -3
BITMAP
1F
3F
7F
FF
FF
F0
F0
F0
F0
F0
F0
F0
F0
F0
F0
F0
F0
F0
F0
F0
F0
F0
F0
F0
F0
FF
FF
7F
3F
1F
ENDCHAR
STARTCHAR 041
ENCODING 41
SWIDTH 720 0
DWIDTH 10 0
BBX 8 30 1 -3
BITMAP
F8
FC
FE
FF
FF
0F
0F
0F
0F
0F
0F
0F
0F
0F
0F
0F
0F
0F
0F
0F
0F
0F
0F
0F
0F
FF
FF
FE
FC
F8
ENDCHAR
STARTCHAR 042
ENCODING 42
SWIDTH 1152 0
DWIDTH 16 0
BBX 14 13 1 12
BITMAP
0780
0780
0780
6798
7FF8
FFF8
7FFC
0FC0
1FC0
3FE0
3CF0
78E0
0840
ENDCHAR
STARTCHAR 043
ENCODING 43
SWIDTH 1656 0
DWIDTH 23 0
BBX 20 19 1 3
BITMAP
01F800
01F800
01F800
01F800
01F800
01F800
FFFFF0
FFFFF0
FFFFF0
FFFFF0
FFFFF0
FFFFF0
01F800
01F800
01F800
01F800
01F800
01F800
01F800
ENDCHAR
STARTCHAR 044
ENCODING 44
SWIDTH 504 0
DWIDTH 7 0
BBX 5 10 1 -4
BITMAP
F8
F8
F8
F8
F8
F8
70
70
E0
20
ENDCHAR
STARTCHAR 045
ENCODING 45
SWIDTH 648 0
DWIDTH 9 0
BBX 7 4 1 10
BITMAP
FE
FE
FE
FE
ENDCHAR
STARTCHAR 046
ENCODING 46
SWIDTH 504 0
DWIDTH 7 0
BBX 5 6 1 0
BITMAP
F8
F8
F8
F8
F8
F8
ENDCHAR
STARTCHAR 047
ENCODING 47
SWIDTH 720 0
DWIDTH 10 0
BBX 8 30 1 -3
BITMAP
07
07
06
06
0E
0E
0E
0E
0C
0C
1C
1C
1C
1C
18
38
38
38
38
38
30
70
70
70
70
60
60
E0
E0
E0
ENDCHAR
STARTCHAR 048
ENCODING 48
SWIDTH 1152 0
DWIDTH 16 0
BBX 14 25 1 0
BITMAP
1FFC
3FFC
7FFC
FFFC
FFFC
F87C
F87C
F87C
F87C
F87C
F87C
F87C
F87C
F87C
F87C
F87C
F87C
F87C
F87C
F87C
FFFC
FFFC
FFF8
FFF0
FFE0
ENDCHAR
STARTCHAR 049
ENCODING 49
SWIDTH 792 0
DWIDTH 11 0
BBX 9 25 1 0
BITMAP
1F80
3F80
7F80
FF80
FF80
7F80
7F80
0F80
0F80
0F80
0F80
0F80
0F80
0F80
0F80
0F80
0F80
0F80
0F80
0F80
0F80
0F80
0F80
0F80
0F80
ENDCHAR
STARTCHAR 050
ENCODING 50
SWIDTH 1080 0
DWIDTH 15 0
BBX 13 25 1 0
BITMAP
1FF8
3FF8
7FF8
FFF8
FFF8
F8F8
F8F8
00F8
00F8
01F8
03F8
07F0
0FE0
1FC0
3F80
7F00
FE00
FC00
F800
F800
FFF8
FFF8
FFF8
FFF8
FFF8
ENDCHAR
STARTCHAR 051
ENCODING 51
SWIDTH 1224 0
DWIDTH 17 0
BBX 14 25 1 0
BITMAP
1FFC
3FFC
7FFC
FFFC
FFFC
F87C
F87C
F87C
007C
007C
01FC
01F0
01E0
01FC
01FC
007C
007C
F87C
F87C
F87C
FFFC
FFFC
FFF8
FFF0
FFE0
ENDCHAR
STARTCHAR 052
ENCODING 52
SWIDTH 1296 0
DWIDTH 18 0
BBX 16 25 1 0
BITMAP
00E0
00F0
01F8
01FC
03FC
03FC
07FC
0FFC
0F7C
1F7C
1F7C
3E7C
3E7C
7C7C
7C7C
F87C
7FFF
7FFF
3FFF
1FFF
007C
007C
007C
007C
007C
ENDCHAR
STARTCHAR 053
ENCODING 53
SWIDTH 1152 0
DWIDTH 16 0
BBX 14 25 1 0
BITMAP
FFF8
FFF8
FFF8
FFF8
FFF8
F800
F800
F800
F800
FFE0
FFF0
FFF8
FFFC
FFFC
007C
007C
007C
F87C
F87C
F87C
FFFC
FFFC
7FFC
3FFC
1FFC
ENDCHAR
STARTCHAR 054
ENCODING 54
SWIDTH 1080 0
DWIDTH 15 0
BBX 13 25 1 0
BITMAP
1FF8
3FF8
7FF8
FFF8
FFF8
F8F8
F8F8
F800
F800
F800
FFF8
FFF8
FFF8
FFF8
FFF8
F8F8
F8F8
F8F8
F8F8
F8F8
FFF8
FFF8
FFF0
FFE0
FFC0
ENDCHAR
STARTCHAR 055
ENCODING 55
SWIDTH 1152 0
DWIDTH 16 0
BBX 14 25 1 0
BITMAP
FFE0
FFF0
FFF8
FFFC
FFFC
F87C
F87C
00F8
00F8
00F8
01F0
01F0
01E0
03E0
03E0
07C0
07C0
07C0
0F80
0F80
1F80
1F00
1F00
3F00
3E00
ENDCHAR
STARTCHAR 056
ENCODING 56
SWIDTH 1224 0
DWIDTH 17 0
BBX 14 25 1 0
BITMAP
1FFC
3FFC
7FFC
FFFC
FFFC
F87C
F87C
F87C
F87C
F87C
F878
FFF0
FFE0
3FFC
7FFC
F87C
F87C
F87C
F87C
F87C
FFFC
FFFC
FFF8
FFF0
FFE0
ENDCHAR
STARTCHAR 057
ENCODING 57
SWIDTH 1080 0
DWIDTH 15 0
BBX 13 25 1 0
BITMAP
1FF8
3FF8
7FF8
FFF8
FFF8
F8F8
F8F8
F8F8
F8F8
F8F8
FFF8
FFF8
FFF8
FFF8
FFF8
00F8
00F8
F8F8
F8F8
F8F8
FFF8
FFF8
FFF0
FFE0
FFC0
ENDCHAR
STARTCHAR 058
ENCODING 58
SWIDTH 504 0
DWIDTH 7 0
BBX 5 21 1 0
BITMAP
F8
F8
F8
F8
F8
F8
00
00
00
00
00
00
00
00
00
F8
F8
F8
F8
F8
F8
ENDCHAR
STARTCHAR 059
ENCODING 59
SWIDTH 576 0
DWIDTH 8 0
BBX 5 25 1 -4
BITMAP
F8
F8
F8
F8
F8
F8
00
00
00
00
00
00
00
00
00
F8
F8
F8
F8
F8
F8
70
70
E0
20
ENDCHAR
STARTCHAR 060
ENCODING 60
SWIDTH 1368 0
DWIDTH 19 0
BBX 17 23 1 -1
BITMAP
000080
000380
000F80
001F80
007F00
01FC00
07F000
0FE000
3F8000
FE0000
F80000
F00000
F80000
FE0000
3F8000
0FE000
03F000
01FC00
007F00
001F80
000F80
000380
000080
ENDCHAR
STARTCHAR 061
ENCODING 61
SWIDTH 1368 0
DWIDTH 19 0
BBX 16 10 1 7
BITMAP
FFFF
FFFF
FFFF
0000
0000
0000
0000
FFFF
FFFF
FFFF
ENDCHAR
STARTCHAR 062
ENCODING 62
SWIDTH 1368 0
DWIDTH 19 0
BBX 17 23 1 -1
BITMAP
800000
C00000
F00000
FC0000
7F0000
3F8000
0FE000
03F800
00FC00
007F00
001F80
000780
001F80
007F00
00FC00
03F800
0FE000
3F8000
7E0000
FC0000
F00000
C00000
800000
ENDCHAR
STARTCHAR 063
ENCODING 63
SWIDTH 1080 0
DWIDTH 15 0
BBX 13 25 1 0
BITMAP
FFC0
FFE0
FFF0
FFF8
FFF8
F8F8
F8F8
00F8
00F8
00F8
01F8
03F0
07E0
0FC0
0F80
0F80
0F80
0F80
0000
0000
0F80
0F80
0F80
0F80
0F80
ENDCHAR
STARTCHAR 064
ENCODING 64
SWIDTH 1800 0
DWIDTH 25 0
BBX 22 24 1 0
BITMAP
1FFFFC
3FFFFC
7FFFFC
FFFFFC
F8007C
F8007C
F83FFC
F87FFC
F8FFFC
F9FFFC
F9FFFC
F9F07C
F9F07C
F9F07C
F9F07C
F9F07C
F9F07C
F9F07C
F9F07C
F9FFFC
F9FFFC
F9FFF8
F9FFF0
F9FFE0
ENDCHAR
STARTCHAR 065
ENCODING 65
SWIDTH 1152 0
DWIDTH 16 0
BBX 14 25 1 0
BITMAP
1FFC
3FFC
7FFC
FFFC
FFFC
F87C
F87C
F87C
F87C
F87C
F87C
F87C
FFFC
FFFC
FFFC
FFFC
FFFC
F87C
F87C
F87C
F87C
F87C
F87C
F87C
F87C
ENDCHAR
STARTCHAR 066
ENCODING 66
SWIDTH 1224 0
DWIDTH 17 0
BBX 15 25 1 0
BITMAP
FFE0
FFF0
FFF8
FFFC
FFFC
F87C
F87C
F87C
F87C
F87C
FFFC
FFF8
FFF0
FFF8
FFFE
F83E
F83E
F83E
F83E
F83E
FFFE
FFFE
7FFE
3FFE
1FFE
ENDCHAR
STARTCHAR 067
ENCODING 67
SWIDTH 1152 0
DWIDTH 16 0
BBX 14 25 1 0
BITMAP
1FFC
3FFC
7FFC
FFFC
FFFC
F87C
F87C
F87C
F87C
F87C
F800
F800
F800
F800
F800
F800
F800
F87C
F87C
F87C
FFFC
FFFC
FFF8
FFF0
FFE0
ENDCHAR
STARTCHAR 068
ENCODING 68
SWIDTH 1152 0
DWIDTH 16 0
BBX 14 25 1 0
BITMAP
FFE0
FFF0
FFF8
FFFC
FFFC
F87C
F87C
F87C
F87C
F87C
F87C
F87C
F87C
F87C
F87C
F87C
F87C
F87C
F87C
F87C
FFFC
FFFC
FFF8
FFF0
FFE0
ENDCHAR
STARTCHAR 069
ENCODING 69
SWIDTH 1008 0
DWIDTH 14 0
BBX 12 25 1 0
BITMAP
FFF0
FFF0
FFF0
FFF0
FFF0
F800
F800
F800
F800
F800
FFE0
FFE0
FFE0
FFE0
FFE0
F800
F800
F800
F800
F800
FFF0
FFF0
FFF0
FFF0
FFF0
ENDCHAR
STARTCHAR 070
ENCODING 70
SWIDTH 1008 0
DWIDTH 14 0
BBX 12 25 1 0
BITMAP
1FF0
3FF0
7FF0
FFF0
FFF0
F800
F800
F800
F800
F800
FFE0
FFE0
FFE0
FFE0
FFE0
F800
F800
F800
F800
F800
F800
F800
F800
F800
F800
ENDCHAR
STARTCHAR 071
ENCODING 71
SWIDTH 1296 0
DWIDTH 18 0
BBX 15 25 1 0
BITMAP
FFFC
FFFC
FFFC
FFFC
FFFC
F800
F800
F800
F800
F800
F800
F800
F8FE
F8FE
F8FE
F8FE
F83E
F83E
F83E
F83E
FFFE
FFFE
FFFE
FFFE
FFFE
ENDCHAR
STARTCHAR 072
ENCODING 72
SWIDTH 1152 0
DWIDTH 16 0
BBX 14 25 1 0
BITMAP
F87C
F87C
F87C
F87C
F87C
F87C
F87C
F87C
F87C
F87C
FFFC
FFFC
FFFC
FFFC
FFFC
F87C
F87C
F87C
F87C
F87C
F87C
F87C
F87C
F87C
F87C
ENDCHAR
STARTCHAR 073
ENCODING 73
SWIDTH 792 0
DWIDTH 11 0
BBX 9 25 1 0
BITMAP
FF80
FF80
FF80
FF80
FF80
3E00
3E00
3E00
3E00
3E00
3E00
3E00
3E00
3E00
3E00
3E00
3E00
3E00
3E00
3E00
FF80
FF80
FF80
FF80
FF80
ENDCHAR
STARTCHAR 074
ENCODING 74
SWIDTH 1080 0
DWIDTH 15 0
BBX 13 25 1 0
BITMAP
3FF8
3FF8
3FF8
3FF8
3FF8
00F8
00F8
00F8
00F8
00F8
00F8
00F8
00F8
00F8
00F8
00F8
00F8
F8F8
F8F8
F8F8
FFF8
FFF8
FFF0
FFE0
FFC0
ENDCHAR
STARTCHAR 075
ENCODING 75
SWIDTH 1296 0
DWIDTH 18 0
BBX 15 25 1 0
BITMAP
F83E
F87C
F87C
F87C
F8F8
F8F8
F9F0
F9F0
FBE0
FBE0
FBE0
FFFE
FFFE
FFFE
FFFE
FFFE
F83E
F83E
F83E
F83E
F83E
F83E
F83E
F83E
F83E
ENDCHAR
STARTCHAR 076
ENCODING 76
SWIDTH 1080 0
DWIDTH 15 0
BBX 12 25 1 0
BITMAP
F800
F800
F800
F800
F800
F800
F800
F800
F800
F800
F800
F800
F800
F800
F800
F800
F800
F800
F800
F800
FFF0
FFF0
FFF0
FFF0
FFF0
ENDCHAR
STARTCHAR 077
ENCODING 77
SWIDTH 1584 0
DWIDTH 22 0
BBX 19 25 1 0
BITMAP
FC07E0
FC07E0
FE0FE0
FE0FE0
FE0FE0
FF1FE0
FF1FE0
FF1FE0
FF1FE0
FFBFE0
FFBFE0
FFBFE0
FBFBE0
FBFBE0
FBFBE0
FBFBE0
F9F3E0
F9F3E0
F9F3E0
F9F3E0
F8E3E0
F8E3E0
F8E3E0
F8E3E0
F843E0
ENDCHAR
STARTCHAR 078
ENCODING 78
SWIDTH 1296 0
DWIDTH 18 0
BBX 15 25 1 0
BITMAP
F83E
FC3E
FC3E
FC3E
FE3E
FE3E
FE3E
FF3E
FF3E
FF3E
FFBE
FFBE
FBBE
FBFE
FBFE
F9FE
F9FE
F9FE
F8FE
F8FE
F8FE
F87E
F87E
F87E
F83E
ENDCHAR
STARTCHAR 079
ENCODING 79
SWIDTH 1224 0
DWIDTH 17 0
BBX 15 25 1 0
BITMAP
FFFE
FFFE
FFFE
FFFE
FFFE
F83E
F83E
F83E
F83E
F83E
F83E
F83E
F83E
F83E
F83E
F83E
F83E
F83E
F83E
F83E
FFFE
FFFE
FFFE
FFFE
FFFE
ENDCHAR
STARTCHAR 080
ENCODING 80
SWIDTH 1152 0
DWIDTH 16 0
BBX 14 25 1 0
BITMAP
1FFC
3FFC
7FFC
FFFC
FFFC
F87C
F87C
F87C
F87C
F87C
F87C
F87C
F87C
F87C
FFFC
FFFC
FFFC
FFFC
FFFC
F800
F800
F800
F800
F800
F800
ENDCHAR
STARTCHAR 081
ENCODING 81
SWIDTH 1224 0
DWIDTH 17 0
BBX 15 29 1 -4
BITMAP
1FFE
3FFE
7FFE
FFFE
FFFE
F83E
F83E
F83E
F83E
F83E
F83E
F83E
F83E
F83E
F83E
F83E
F83E
F83E
F83E
F83E
FFFE
FFFE
FFFE
FFFE
FFFE
003E
001E
0006
0002
ENDCHAR
STARTCHAR 082
ENCODING 82
SWIDTH 1224 0
DWIDTH 17 0
BBX 14 25 1 0
BITMAP
1FFC
3FFC
7FFC
FFFC
FFFC
F87C
F87C
F87C
F87C
F87C
F87C
FFFC
FFFC
FFFC
FFFC
FFFC
F9E0
F9F0
F9F0
F8F8
F8F8
F8F8
F87C
F87C
F87C
ENDCHAR
STARTCHAR 083
ENCODING 83
SWIDTH 1080 0
DWIDTH 15 0
BBX 13 25 1 0
BITMAP
FFF8
FFF8
FFF8
FFF8
FFF8
F8F8
F8F8
F800
F800
FE00
7F00
3F80
1FE0
07F0
03F8
01F8
00F8
F8F8
F8F8
F8F8
FFF8
FFF8
FFF8
FFF8
FFF8
ENDCHAR
STARTCHAR 084
ENCODING 84
SWIDTH 1224 0
DWIDTH 17 0
BBX 15 25 1 0
BITMAP
FFFE
FFFE
FFFE
FFFE
FFFE
07C0
07C0
07C0
07C0
07C0
07C0
07C0
07C0
07C0
07C0
07C0
07C0
07C0
07C0
07C0
07C0
07C0
07C0
07C0
07C0
ENDCHAR
STARTCHAR 085
ENCODING 85
SWIDTH 1152 0
DWIDTH 16 0
BBX 14 25 1 0
BITMAP
F87C
F87C
F87C
F87C
F87C
F87C
F87C
F87C
F87C
F87C
F87C
F87C
F87C
F87C
F87C
F87C
F87C
F87C
F87C
F87C
FFFC
FFFC
FFFC
FFFC
FFFC
ENDCHAR
STARTCHAR 086
ENCODING 86
SWIDTH 1224 0
DWIDTH 17 0
BBX 15 25 1 0
BITMAP
F87E
FC7E
FC7C
FC7C
7C7C
7C7C
7C7C
7C7C
7C7C
7CFC
7CF8
3EF8
3EF8
3EF8
3EF8
3EF8
3EF8
3EF8
3FF0
1FF0
1FF0
1FF0
1FF0
1FF0
1FF0
ENDCHAR
STARTCHAR 087
ENCODING 87
SWIDTH 1872 0
DWIDTH 26 0
BBX 23 25 1 0
BITMAP
F83C3E
F83C3E
F87C3E
7C7C3E
7C7C3E
7C7C3C
7C7E7C
7C7E7C
7CFE7C
3CFE7C
3EFE7C
3EEF78
3EEF78
3EEFF8
3FE7F8
1FE7F8
1FC7F8
1FC7F0
1FC7F0
1FC7F0
0FC3F0
0FC3F0
0F83F0
0F83E0
0F83E0
ENDCHAR
STARTCHAR 088
ENCODING 88
SWIDTH 1368 0
DWIDTH 19 0
BBX 17 25 1 0
BITMAP
7C1F00
7E3F00
3E3E00
3E3E00
3F7E00
1F7C00
1F7C00
1FFC00
0FF800
0FF800
0FF800
07F000
0FF000
0FF800
0FF800
1FF800
1FFC00
1F7C00
3F7E00
3F7E00
3E3E00
7E3F00
7E3F00
7C1F00
FC1F80
ENDCHAR
STARTCHAR 089
ENCODING 89
SWIDTH 1296 0
DWIDTH 18 0
BBX 16 25 1 0
BITMAP
FC3F
7C3E
7C3E
7E7E
3E7C
3E7C
3FFC
1FF8
1FF8
1FF8
0FF0
0FF0
0FF0
07E0
07E0
07E0
07C0
07C0
0FC0
0F80
0F80
1F80
1F00
1F00
3F00
ENDCHAR
STARTCHAR 090
ENCODING 90
SWIDTH 1152 0
DWIDTH 16 0
BBX 13 25 1 0
BITMAP
FFF0
FFF0
FFF8
FFF8
FFF8
01F8
01F0
03F0
03E0
07E0
07C0
0FC0
0F80
1F80
1F00
3F00
3F00
7E00
7E00
7C00
FFF8
FFF8
FFF8
FFF8
FFF8
ENDCHAR
STARTCHAR 091
ENCODING 91
SWIDTH 648 0
DWIDTH 9 0
BBX 7 30 1 -3
BITMAP
FE
FE
FE
FE
FE
F0
F0
F0
F0
F0
F0
F0
F0
F0
F0
F0
F0
F0
F0
F0
F0
F0
F0
F0
F0
FE
FE
FE
FE
FE
ENDCHAR
STARTCHAR 092
ENCODING 92
SWIDTH 720 0
DWIDTH 10 0
BBX 8 30 1 -3
BITMAP
E0
E0
E0
60
60
70
70
70
70
30
38
38
38
38
18
18
1C
1C
1C
1C
0C
0C
0E
0E
0E
0E
06
06
07
07
ENDCHAR
STARTCHAR 093
ENCODING 93
SWIDTH 648 0
DWIDTH 9 0
BBX 7 30 1 -3
BITMAP
FE
FE
FE
FE
FE
1E
1E
1E
1E
1E
1E
1E
1E
1E
1E
1E
1E
1E
1E
1E
1E
1E
1E
1E
1E
FE
FE
FE
FE
FE
ENDCHAR
STARTCHAR 094
ENCODING 94
SWIDTH 576 0
DWIDTH 8 0
BBX 0 0 0 0
BITMAP
ENDCHAR
STARTCHAR 095
ENCODING 95
SWIDTH 1368 0
DWIDTH 19 0
BBX 17 3 1 -6
BITMAP
FFFF80
FFFF80
FFFF80
ENDCHAR
STARTCHAR 096
ENCODING 96
SWIDTH 648 0
DWIDTH 9 0
BBX 6 5 2 26
BITMAP
F0
78
78
38
1C
ENDCHAR
STARTCHAR 097
ENCODING 97
SWIDTH 1152 0
DWIDTH 16 0
BBX 14 25 1 0
BITMAP
1FFC
3FFC
7FFC
FFFC
FFFC
F87C
F87C
F87C
F87C
F87C
F87C
F87C
FFFC
FFFC
FFFC
FFFC
FFFC
F87C
F87C
F87C
F87C
F87C
F87C
F87C
F87C
ENDCHAR
STARTCHAR 098
ENCODING 98
SWIDTH 1224 0
DWIDTH 17 0
BBX 15 25 1 0
BITMAP
FFE0
FFF0
FFF8
FFFC
FFFC
F87C
F87C
F87C
F87C
F87C
FFFC
FFF8
FFF0
FFF8
FFFE
F83E
F83E
F83E
F83E
F83E
FFFE
FFFE
7FFE
3FFE
1FFE
ENDCHAR
STARTCHAR 099
ENCODING 99
SWIDTH 1152 0
DWIDTH 16 0
BBX 14 25 1 0
BITMAP
1FFC
3FFC
7FFC
FFFC
FFFC
F87C
F87C
F87C
F87C
F87C
F800
F800
F800
F800
F800
F800
F800
F87C
F87C
F87C
FFFC
FFFC
FFF8
FFF0
FFE0
ENDCHAR
STARTCHAR 100
ENCODING 100
SWIDTH 1152 0
DWIDTH 16 0
BBX 14 25 1 0
BITMAP
FFE0
FFF0
FFF8
FFFC
FFFC
F87C
F87C
F87C
F87C
F87C
F87C
F87C
F87C
F87C
F87C
F87C
F87C
F87C
F87C
F87C
FFFC
FFFC
FFF8
FFF0
FFE0
ENDCHAR
STARTCHAR 101
ENCODING 101
SWIDTH 1008 0
DWIDTH 14 0
BBX 12 25 1 0
BITMAP
FFF0
FFF0
FFF0
FFF0
FFF0
F800
F800
F800
F800
F800
FFE0
FFE0
FFE0
FFE0
FFE0
F800
F800
F800
F800
F800
FFF0
FFF0
FFF0
FFF0
FFF0
ENDCHAR
STARTCHAR 102
ENCODING 102
SWIDTH 1008 0
DWIDTH 14 0
BBX 12 25 1 0
BITMAP
1FF0
3FF0
7FF0
FFF0
FFF0
F800
F800
F800
F800
F800
FFE0
FFE0
FFE0
FFE0
FFE0
F800
F800
F800
F800
F800
F800
F800
F800
F800
F800
ENDCHAR
STARTCHAR 103
ENCODING 103
SWIDTH 1296 0
DWIDTH 18 0
BBX 15 25 1 0
BITMAP
FFFC
FFFC
FFFC
FFFC
FFFC
F800
F800
F800
F800
F800
F800
F800
F8FE
F8FE
F8FE
F8FE
F83E
F83E
F83E
F83E
FFFE
FFFE
FFFE
FFFE
FFFE
ENDCHAR
STARTCHAR 104
ENCODING 104
SWIDTH 1152 0
DWIDTH 16 0
BBX 14 25 1 0
BITMAP
F87C
F87C
F87C
F87C
F87C
F87C
F87C
F87C
F87C
F87C
FFFC
FFFC
FFFC
FFFC
FFFC
F87C
F87C
F87C
F87C
F87C
F87C
F87C
F87C
F87C
F87C
ENDCHAR
STARTCHAR 105
ENCODING 105
SWIDTH 504 0
DWIDTH 7 0
BBX 5 25 1 0
BITMAP
F8
F8
F8
F8
F8
F8
00
00
F8
F8
F8
F8
F8
F8
F8
F8
F8
F8
F8
F8
F8
F8
F8
F8
F8
ENDCHAR
STARTCHAR 106
ENCODING 106
SWIDTH 1080 0
DWIDTH 15 0
BBX 13 25 1 0
BITMAP
00F8
00F8
00F8
00F8
00F8
00F8
0000
00F8
00F8
00F8
00F8
00F8
00F8
00F8
00F8
00F8
00F8
F8F8
F8F8
F8F8
FFF8
FFF8
FFF0
FFE0
FFC0
ENDCHAR
STARTCHAR 107
ENCODING 107
SWIDTH 1296 0
DWIDTH 18 0
BBX 15 25 1 0
BITMAP
F83E
F87C
F87C
F87C
F8F8
F8F8
F9F0
F9F0
FBE0
FBE0
FBE0
FFFE
FFFE
FFFE
FFFE
FFFE
F83E
F83E
F83E
F83E
F83E
F83E
F83E
F83E
F83E
ENDCHAR
STARTCHAR 108
ENCODING 108
SWIDTH 1080 0
DWIDTH 15 0
BBX 12 25 1 0
BITMAP
F800
F800
F800
F800
F800
F800
F800
F800
F800
F800
F800
F800
F800
F800
F800
F800
F800
F800
F800
F800
FFF0
FFF0
FFF0
FFF0
FFF0
ENDCHAR
STARTCHAR 109
ENCODING 109
SWIDTH 1584 0
DWIDTH 22 0
BBX 19 25 1 0
BITMAP
FC07E0
FC07E0
FE0FE0
FE0FE0
FE0FE0
FF1FE0
FF1FE0
FF1FE0
FF1FE0
FFBFE0
FFBFE0
FFBFE0
FBFBE0
FBFBE0
FBFBE0
FBFBE0
F9F3E0
F9F3E0
F9F3E0
F9F3E0
F8E3E0
F8E3E0
F8E3E0
F8E3E0
F843E0
ENDCHAR
STARTCHAR 110
ENCODING 110
SWIDTH 1296 0
DWIDTH 18 0
BBX 15 25 1 0
BITMAP
F83E
FC3E
FC3E
FC3E
FE3E
FE3E
FE3E
FF3E
FF3E
FF3E
FFBE
FFBE
FBBE
FBFE
FBFE
F9FE
F9FE
F9FE
F8FE
F8FE
F8FE
F87E
F87E
F87E
F83E
ENDCHAR
STARTCHAR 111
ENCODING 111
SWIDTH 1224 0
DWIDTH 17 0
BBX 15 25 1 0
BITMAP
FFFE
FFFE
FFFE
FFFE
FFFE
F83E
F83E
F83E
F83E
F83E
F83E
F83E
F83E
F83E
F83E
F83E
F83E
F83E
F83E
F83E
FFFE
FFFE
FFFE
FFFE
FFFE
ENDCHAR
STARTCHAR 112
ENCODING 112
SWIDTH 1152 0
DWIDTH 16 0
BBX 14 25 1 0
BITMAP
1FFC
3FFC
7FFC
FFFC
FFFC
F87C
F87C
F87C
F87C
F87C
F87C
F87C
F87C
F87C
FFFC
FFFC
FFFC
FFFC
FFFC
F800
F800
F800
F800
F800
F800
ENDCHAR
STARTCHAR 113
ENCODING 113
SWIDTH 1224 0
DWIDTH 17 0
BBX 15 29 1 -4
BITMAP
1FFE
3FFE
7FFE
FFFE
FFFE
F83E
F83E
F83E
F83E
F83E
F83E
F83E
F83E
F83E
F83E
F83E
F83E
F83E
F83E
F83E
FFFE
FFFE
FFFE
FFFE
FFFE
003E
001E
0006
0002
ENDCHAR
STARTCHAR 114
ENCODING 114
SWIDTH 1224 0
DWIDTH 17 0
BBX 14 25 1 0
BITMAP
1FFC
3FFC
7FFC
FFFC
FFFC
F87C
F87C
F87C
F87C
F87C
F87C
FFFC
FFFC
FFFC
FFFC
FFFC
F9E0
F9F0
F9F0
F8F8
F8F8
F8F8
F87C
F87C
F87C
ENDCHAR
STARTCHAR 115
ENCODING 115
SWIDTH 1080 0
DWIDTH 15 0
BBX 13 25 1 0
BITMAP
FFF8
FFF8
FFF8
FFF8
FFF8
F8F8
F8F8
F800
F800
FE00
7F00
3F80
1FE0
07F0
03F8
01F8
00F8
F8F8
F8F8
F8F8
FFF8
FFF8
FFF8
FFF8
FFF8
ENDCHAR
STARTCHAR 116
ENCODING 116
SWIDTH 1224 0
DWIDTH 17 0
BBX 15 25 1 0
BITMAP
FFFE
FFFE
FFFE
FFFE
FFFE
07C0
07C0
07C0
07C0
07C0
07C0
07C0
07C0
07C0
07C0
07C0
07C0
07C0
07C0
07C0
07C0
07C0
07C0
07C0
07C0
ENDCHAR
STARTCHAR 117
ENCODING 117
SWIDTH 1152 0
DWIDTH 16 0
BBX 14 25 1 0
BITMAP
F87C
F87C
F87C
F87C
F87C
F87C
F87C
F87C
F87C
F87C
F87C
F87C
F87C
F87C
F87C
F87C
F87C
F87C
F87C
F87C
FFFC
FFFC
FFFC
FFFC
FFFC
ENDCHAR
STARTCHAR 118
ENCODING 118
SWIDTH 1224 0
DWIDTH 17 0
BBX 15 25 1 0
BITMAP
F87E
FC7E
FC7C
FC7C
7C7C
7C7C
7C7C
7C7C
7C7C
7CFC
7CF8
3EF8
3EF8
3EF8
3EF8
3EF8
3EF8
3EF8
3FF0
1FF0
1FF0
1FF0
1FF0
1FF0
1FF0
ENDCHAR
STARTCHAR 119
ENCODING 119
SWIDTH 1872 0
DWIDTH 26 0
BBX 23 25 1 0
BITMAP
F83C3E
F83C3E
F87C3E
7C7C3E
7C7C3E
7C7C3C
7C7E7C
7C7E7C
7CFE7C
3CFE7C
3EFE7C
3EEF78
3EEF78
3EEFF8
3FE7F8
1FE7F8
1FC7F8
1FC7F0
1FC7F0
1FC7F0
0FC3F0
0FC3F0
0F83F0
0F83E0
0F83E0
ENDCHAR
STARTCHAR 120
ENCODING 120
SWIDTH 1368 0
DWIDTH 19 0
BBX 17 25 1 0
BITMAP
7C1F00
7E3F00
3E3E00
3E3E00
3F7E00
1F7C00
1F7C00
1FFC00
0FF800
0FF800
0FF800
07F000
0FF000
0FF800
0FF800
1FF800
1FFC00
1F7C00
3F7E00
3F7E00
3E3E00
7E3F00
7E3F00
7C1F00
FC1F80
ENDCHAR
STARTCHAR 121
ENCODING 121
SWIDTH 1296 0
DWIDTH 18 0
BBX 16 25 1 0
BITMAP
FC3F
7C3E
7C3E
7E7E
3E7C
3E7C
3FFC
1FF8
1FF8
1FF8
0FF0
0FF0
0FF0
07E0
07E0
07E0
07C0
07C0
0FC0
0F80
0F80
1F80
1F00
1F00
3F00
ENDCHAR
STARTCHAR 122
ENCODING 122
SWIDTH 1152 0
DWIDTH 16 0
BBX 13 25 1 0
BITMAP
FFF0
FFF0
FFF8
FFF8
FFF8
01F8
01F0
03F0
03E0
07E0
07C0
0FC0
0F80
1F80
1F00
3F00
3F00
7E00
7E00
7C00
FFF8
FFF8
FFF8
FFF8
FFF8
ENDCHAR
STARTCHAR 123
ENCODING 123
SWIDTH 576 0
DWIDTH 8 0
BBX 0 0 0 0
BITMAP
ENDCHAR
STARTCHAR 124
ENCODING 124
SWIDTH 576 0
DWIDTH 8 0
BBX 0 0 0 0
BITMAP
ENDCHAR
STARTCHAR 125
ENCODING 125
SWIDTH 576 0
DWIDTH 8 0
BBX 0 0 0 0
BITMAP
ENDCHAR
STARTCHAR 126
ENCODING 126
SWIDTH 576 0
DWIDTH 8 0
BBX 0 0 0 0
BITMAP
ENDCHAR
STARTCHAR 127
ENCODING 127
SWIDTH 576 0
DWIDTH 8 0
BBX 7 28 1 -1
BITMAP
FE
FE
C0
C0
C0
C0
C0
C0
C0
C0
C0
C0
C0
C0
C0
C0
C0
C0
C0
C0
C0
C0
C0
C0
C0
C0
FE
FE
ENDCHAR
STARTCHAR 128
ENCODING 128
SWIDTH 0 0
DWIDTH 0 0
BBX 0 0 0 0
BITMAP
ENDCHAR
STARTCHAR 129
ENCODING 129
SWIDTH 0 0
DWIDTH 0 0
BBX 0 0 0 0
BITMAP
ENDCHAR
STARTCHAR 130
ENCODING 130
SWIDTH 0 0
DWIDTH 0 0
BBX 0 0 0 0
BITMAP
ENDCHAR
STARTCHAR 131
ENCODING 131
SWIDTH 0 0
DWIDTH 0 0
BBX 0 0 0 0
BITMAP
ENDCHAR
STARTCHAR 132
ENCODING 132
SWIDTH 0 0
DWIDTH 0 0
BBX 0 0 0 0
BITMAP
ENDCHAR
STARTCHAR 133
ENCODING 133
SWIDTH 0 0
DWIDTH 0 0
BBX 0 0 0 0
BITMAP
ENDCHAR
STARTCHAR 134
ENCODING 134
SWIDTH 0 0
DWIDTH 0 0
BBX 0 0 0 0
BITMAP
ENDCHAR
STARTCHAR 135
ENCODING 135
SWIDTH 0 0
DWIDTH 0 0
BBX 0 0 0 0
BITMAP
ENDCHAR
STARTCHAR 136
ENCODING 136
SWIDTH 0 0
DWIDTH 0 0
BBX 0 0 0 0
BITMAP
ENDCHAR
STARTCHAR 137
ENCODING 137
SWIDTH 0 0
DWIDTH 0 0
BBX 0 0 0 0
BITMAP
ENDCHAR
STARTCHAR 138
ENCODING 138
SWIDTH 0 0
DWIDTH 0 0
BBX 0 0 0 0
BITMAP
ENDCHAR
STARTCHAR 139
ENCODING 139
SWIDTH 0 0
DWIDTH 0 0
BBX 0 0 0 0
BITMAP
ENDCHAR
STARTCHAR 140
ENCODING 140
SWIDTH 0 0
DWIDTH 0 0
BBX 0 0 0 0
BITMAP
ENDCHAR
STARTCHAR 141
ENCODING 141
SWIDTH 0 0
DWIDTH 0 0
BBX 0 0 0 0
BITMAP
ENDCHAR
STARTCHAR 142
ENCODING 142
SWIDTH 0 0
DWIDTH 0 0
BBX 0 0 0 0
BITMAP
ENDCHAR
STARTCHAR 143
ENCODING 143
SWIDTH 0 0
DWIDTH 0 0
BBX 0 0 0 0
BITMAP
ENDCHAR
STARTCHAR 144
ENCODING 144
SWIDTH 0 0
DWIDTH 0 0
BBX 0 0 0 0
BITMAP
ENDCHAR
STARTCHAR 145
ENCODING 145
SWIDTH 0 0
DWIDTH 0 0
BBX 0 0 0 0
BITMAP
ENDCHAR
STARTCHAR 146
ENCODING 146
SWIDTH 0 0
DWIDTH 0 0
BBX 0 0 0 0
BITMAP
ENDCHAR
STARTCHAR 147
ENCODING 147
SWIDTH 0 0
DWIDTH 0 0
BBX 0 0 0 0
BITMAP
ENDCHAR
STARTCHAR 148
ENCODING 148
SWIDTH 0 0
DWIDTH 0 0
BBX 0 0 0 0
BITMAP
ENDCHAR
STARTCHAR 149
ENCODING 149
SWIDTH 0 0
DWIDTH 0 0
BBX 0 0 0 0
BITMAP
ENDCHAR
STARTCHAR 150
ENCODING 150
SWIDTH 0 0
DWIDTH 0 0
BBX 0 0 0 0
BITMAP
ENDCHAR
STARTCHAR 151
ENCODING 151
SWIDTH 0 0
DWIDTH 0 0
BBX 0 0 0 0
BITMAP
ENDCHAR
STARTCHAR 152
ENCODING 152
SWIDTH 0 0
DWIDTH 0 0
BBX 0 0 0 0
BITMAP
ENDCHAR
STARTCHAR 153
ENCODING 153
SWIDTH 0 0
DWIDTH 0 0
BBX 0 0 0 0
BITMAP
ENDCHAR
STARTCHAR 154
ENCODING 154
SWIDTH 0 0
DWIDTH 0 0
BBX 0 0 0 0
BITMAP
ENDCHAR
STARTCHAR 155
ENCODING 155
SWIDTH 0 0
DWIDTH 0 0
BBX 0 0 0 0
BITMAP
ENDCHAR
STARTCHAR 156
ENCODING 156
SWIDTH 0 0
DWIDTH 0 0
BBX 0 0 0 0
BITMAP
ENDCHAR
STARTCHAR 157
ENCODING 157
SWIDTH 0 0
DWIDTH 0 0
BBX 0 0 0 0
BITMAP
ENDCHAR
STARTCHAR 158
ENCODING 158
SWIDTH 0 0
DWIDTH 0 0
BBX 0 0 0 0
BITMAP
ENDCHAR
STARTCHAR 159
ENCODING 159
SWIDTH 0 0
DWIDTH 0 0
BBX 0 0 0 0
BITMAP
ENDCHAR
STARTCHAR 160
ENCODING 160
SWIDTH 576 0
DWIDTH 8 0
BBX 0 0 0 0
BITMAP
ENDCHAR
STARTCHAR 161
ENCODING 161
SWIDTH 576 0
DWIDTH 8 0
BBX 0 0 0 0
BITMAP
ENDCHAR
STARTCHAR 162
ENCODING 162
SWIDTH 576 0
DWIDTH 8 0
BBX 0 0 0 0
BITMAP
ENDCHAR
STARTCHAR 163
ENCODING 163
SWIDTH 576 0
DWIDTH 8 0
BBX 0 0 0 0
BITMAP
ENDCHAR
STARTCHAR 164
ENCODING 164
SWIDTH 576 0
DWIDTH 8 0
BBX 0 0 0 0
BITMAP
ENDCHAR
STARTCHAR 165
ENCODING 165
SWIDTH 576 0
DWIDTH 8 0
BBX 0 0 0 0
BITMAP
ENDCHAR
STARTCHAR 166
ENCODING 166
SWIDTH 576 0
DWIDTH 8 0
BBX 0 0 0 0
BITMAP
ENDCHAR
STARTCHAR 167
ENCODING 167
SWIDTH 576 0
DWIDTH 8 0
BBX 0 0 0 0
BITMAP
ENDCHAR
STARTCHAR 168
ENCODING 168
SWIDTH 576 0
DWIDTH 8 0
BBX 0 0 0 0
BITMAP
ENDCHAR
STARTCHAR 169
ENCODING 169
SWIDTH 576 0
DWIDTH 8 0
BBX 0 0 0 0
BITMAP
ENDCHAR
STARTCHAR 170
ENCODING 170
SWIDTH 576 0
DWIDTH 8 0
BBX 0 0 0 0
BITMAP
ENDCHAR
STARTCHAR 171
ENCODING 171
SWIDTH 576 0
DWIDTH 8 0
BBX 0 0 0 0
BITMAP
ENDCHAR
STARTCHAR 172
ENCODING 172
SWIDTH 576 0
DWIDTH 8 0
BBX 0 0 0 0
BITMAP
ENDCHAR
STARTCHAR 173
ENCODING 173
SWIDTH 576 0
DWIDTH 8 0
BBX 0 0 0 0
BITMAP
ENDCHAR
STARTCHAR 174
ENCODING 174
SWIDTH 576 0
DWIDTH 8 0
BBX 0 0 0 0
BITMAP
ENDCHAR
STARTCHAR 175
ENCODING 175
SWIDTH 576 0
DWIDTH 8 0
BBX 0 0 0 0
BITMAP
ENDCHAR
STARTCHAR 176
ENCODING 176
SWIDTH 576 0
DWIDTH 8 0
BBX 0 0 0 0
BITMAP
ENDCHAR
STARTCHAR 177
ENCODING 177
SWIDTH 576 0
DWIDTH 8 0
BBX 0 0 0 0
BITMAP
ENDCHAR
STARTCHAR 178
ENCODING 178
SWIDTH 576 0
DWIDTH 8 0
BBX 0 0 0 0
BITMAP
ENDCHAR
STARTCHAR 179
ENCODING 179
SWIDTH 576 0
DWIDTH 8 0
BBX 0 0 0 0
BITMAP
ENDCHAR
STARTCHAR 180
ENCODING 180
SWIDTH 576 0
DWIDTH 8 0
BBX 0 0 0 0
BITMAP
ENDCHAR
STARTCHAR 181
ENCODING 181
SWIDTH 576 0
DWIDTH 8 0
BBX 0 0 0 0
BITMAP
ENDCHAR
STARTCHAR 182
ENCODING 182
SWIDTH 576 0
DWIDTH 8 0
BBX 0 0 0 0
BITMAP
ENDCHAR
STARTCHAR 183
ENCODING 183
SWIDTH 576 0
DWIDTH 8 0
BBX 0 0 0 0
BITMAP
ENDCHAR
STARTCHAR 184
ENCODING 184
SWIDTH 576 0
DWIDTH 8 0
BBX 0 0 0 0
BITMAP
ENDCHAR
STARTCHAR 185
ENCODING 185
SWIDTH 576 0
DWIDTH 8 0
BBX 0 0 0 0
BITMAP
ENDCHAR
STARTCHAR 186
ENCODING 186
SWIDTH 576 0
DWIDTH 8 0
BBX 0 0 0 0
BITMAP
ENDCHAR
STARTCHAR 187
ENCODING 187
SWIDTH 576 0
DWIDTH 8 0
BBX 0 0 0 0
BITMAP
ENDCHAR
STARTCHAR 188
ENCODING 188
SWIDTH 576 0
DWIDTH 8 0
BBX 0 0 0 0
BITMAP
ENDCHAR
STARTCHAR 189
ENCODING 189
SWIDTH 576 0
DWIDTH 8 0
BBX 0 0 0 0
BITMAP
ENDCHAR
STARTCHAR 190
ENCODING 190
SWIDTH 576 0
DWIDTH 8 0
BBX 0 0 0 0
BITMAP
ENDCHAR
STARTCHAR 191
ENCODING 191
SWIDTH 576 0
DWIDTH 8 0
BBX 0 0 0 0
BITMAP
ENDCHAR
STARTCHAR 192
ENCODING 192
SWIDTH 576 0
DWIDTH 8 0
BBX 0 0 0 0
BITMAP
ENDCHAR
STARTCHAR 193
ENCODING 193
SWIDTH 576 0
DWIDTH 8 0
BBX 0 0 0 0
BITMAP
ENDCHAR
STARTCHAR 194
ENCODING 194
SWIDTH 576 0
DWIDTH 8 0
BBX 0 0 0 0
BITMAP
ENDCHAR
STARTCHAR 195
ENCODING 195
SWIDTH 576 0
DWIDTH 8 0
BBX 0 0 0 0
BITMAP
ENDCHAR
STARTCHAR 196
ENCODING 196
SWIDTH 576 0
DWIDTH 8 0
BBX 0 0 0 0
BITMAP
ENDCHAR
STARTCHAR 197
ENCODING 197
SWIDTH 576 0
DWIDTH 8 0
BBX 0 0 0 0
BITMAP
ENDCHAR
STARTCHAR 198
ENCODING 198
SWIDTH 576 0
DWIDTH 8 0
BBX 0 0 0 0
BITMAP
ENDCHAR
STARTCHAR 199
ENCODING 199
SWIDTH 576 0
DWIDTH 8 0
BBX 0 0 0 0
BITMAP
ENDCHAR
STARTCHAR 200
ENCODING 200
SWIDTH 576 0
DWIDTH 8 0
BBX 0 0 0 0
BITMAP
ENDCHAR
STARTCHAR 201
ENCODING 201
SWIDTH 576 0
DWIDTH 8 0
BBX 0 0 0 0
BITMAP
ENDCHAR
STARTCHAR 202
ENCODING 202
SWIDTH 576 0
DWIDTH 8 0
BBX 0 0 0 0
BITMAP
ENDCHAR
STARTCHAR 203
ENCODING 203
SWIDTH 576 0
DWIDTH 8 0
BBX 0 0 0 0
BITMAP
ENDCHAR
STARTCHAR 204
ENCODING 204
SWIDTH 576 0
DWIDTH 8 0
BBX 0 0 0 0
BITMAP
ENDCHAR
STARTCHAR 205
ENCODING 205
SWIDTH 576 0
DWIDTH 8 0
BBX 0 0 0 0
BITMAP
ENDCHAR
STARTCHAR 206
ENCODING 206
SWIDTH 576 0
DWIDTH 8 0
BBX 0 0 0 0
BITMAP
ENDCHAR
STARTCHAR 207
ENCODING 207
SWIDTH 576 0
DWIDTH 8 0
BBX 0 0 0 0
BITMAP
ENDCHAR
STARTCHAR 208
ENCODING 208
SWIDTH 576 0
DWIDTH 8 0
BBX 0 0 0 0
BITMAP
ENDCHAR
STARTCHAR 209
ENCODING 209
SWIDTH 576 0
DWIDTH 8 0
BBX 0 0 0 0
BITMAP
ENDCHAR
STARTCHAR 210
ENCODING 210
SWIDTH 576 0
DWIDTH 8 0
BBX 0 0 0 0
BITMAP
ENDCHAR
STARTCHAR 211
ENCODING 211
SWIDTH 576 0
DWIDTH 8 0
BBX 0 0 0 0
BITMAP
ENDCHAR
STARTCHAR 212
ENCODING 212
SWIDTH 576 0
DWIDTH 8 0
BBX 0 0 0 0
BITMAP
ENDCHAR
STARTCHAR 213
ENCODING 213
SWIDTH 576 0
DWIDTH 8 0
BBX 0 0 0 0
BITMAP
ENDCHAR
STARTCHAR 214
ENCODING 214
SWIDTH 576 0
DWIDTH 8 0
BBX 0 0 0 0
BITMAP
ENDCHAR
STARTCHAR 215
ENCODING 215
SWIDTH 576 0
DWIDTH 8 0
BBX 0 0 0 0
BITMAP
ENDCHAR
STARTCHAR 216
ENCODING 216
SWIDTH 576 0
DWIDTH 8 0
BBX 0 0 0 0
BITMAP
ENDCHAR
STARTCHAR 217
ENCODING 217
SWIDTH 576 0
DWIDTH 8 0
BBX 0 0 0 0
BITMAP
ENDCHAR
STARTCHAR 218
ENCODING 218
SWIDTH 576 0
DWIDTH 8 0
BBX 0 0 0 0
BITMAP
ENDCHAR
STARTCHAR 219
ENCODING 219
SWIDTH 576 0
DWIDTH 8 0
BBX 0 0 0 0
BITMAP
ENDCHAR
STARTCHAR 220
ENCODING 220
SWIDTH 576 0
DWIDTH 8 0
BBX 0 0 0 0
BITMAP
ENDCHAR
STARTCHAR 221
ENCODING 221
SWIDTH 576 0
DWIDTH 8 0
BBX 0 0 0 0
BITMAP
ENDCHAR
STARTCHAR 222
ENCODING 222
SWIDTH 576 0
DWIDTH 8 0
BBX 0 0 0 0
BITMAP
ENDCHAR
STARTCHAR 223
ENCODING 223
SWIDTH 576 0
DWIDTH 8 0
BBX 0 0 0 0
BITMAP
ENDCHAR
STARTCHAR 224
ENCODING 224
SWIDTH 576 0
DWIDTH 8 0
BBX 0 0 0 0
BITMAP
ENDCHAR
STARTCHAR 225
ENCODING 225
SWIDTH 576 0
DWIDTH 8 0
BBX 0 0 0 0
BITMAP
ENDCHAR
STARTCHAR 226
ENCODING 226
SWIDTH 576 0
DWIDTH 8 0
BBX 0 0 0 0
BITMAP
ENDCHAR
STARTCHAR 227
ENCODING 227
SWIDTH 576 0
DWIDTH 8 0
BBX 0 0 0 0
BITMAP
ENDCHAR
STARTCHAR 228
ENCODING 228
SWIDTH 576 0
DWIDTH 8 0
BBX 0 0 0 0
BITMAP
ENDCHAR
STARTCHAR 229
ENCODING 229
SWIDTH 576 0
DWIDTH 8 0
BBX 0 0 0 0
BITMAP
ENDCHAR
STARTCHAR 230
ENCODING 230
SWIDTH 576 0
DWIDTH 8 0
BBX 0 0 0 0
BITMAP
ENDCHAR
STARTCHAR 231
ENCODING 231
SWIDTH 576 0
DWIDTH 8 0
BBX 0 0 0 0
BITMAP
ENDCHAR
STARTCHAR 232
ENCODING 232
SWIDTH 576 0
DWIDTH 8 0
BBX 0 0 0 0
BITMAP
ENDCHAR
STARTCHAR 233
ENCODING 233
SWIDTH 576 0
DWIDTH 8 0
BBX 0 0 0 0
BITMAP
ENDCHAR
STARTCHAR 234
ENCODING 234
SWIDTH 576 0
DWIDTH 8 0
BBX 0 0 0 0
BITMAP
ENDCHAR
STARTCHAR 235
ENCODING 235
SWIDTH 576 0
DWIDTH 8 0
BBX 0 0 0 0
BITMAP
ENDCHAR
STARTCHAR 236
ENCODING 236
SWIDTH 576 0
DWIDTH 8 0
BBX 0 0 0 0
BITMAP
ENDCHAR
STARTCHAR 237
ENCODING 237
SWIDTH 576 0
DWIDTH 8 0
BBX 0 0 0 0
BITMAP
ENDCHAR
STARTCHAR 238
ENCODING 238
SWIDTH 576 0
DWIDTH 8 0
BBX 0 0 0 0
BITMAP
ENDCHAR
STARTCHAR 239
ENCODING 239
SWIDTH 576 0
DWIDTH 8 0
BBX 0 0 0 0
BITMAP
ENDCHAR
STARTCHAR 240
ENCODING 240
SWIDTH 576 0
DWIDTH 8 0
BBX 0 0 0 0
BITMAP
ENDCHAR
STARTCHAR 241
ENCODING 241
SWIDTH 576 0
DWIDTH 8 0
BBX 0 0 0 0
BITMAP
ENDCHAR
STARTCHAR 242
ENCODING 242
SWIDTH 576 0
DWIDTH 8 0
BBX 0 0 0 0
BITMAP
ENDCHAR
STARTCHAR 243
ENCODING 243
SWIDTH 576 0
DWIDTH 8 0
BBX 0 0 0 0
BITMAP
ENDCHAR
STARTCHAR 244
ENCODING 244
SWIDTH 576 0
DWIDTH 8 0
BBX 0 0 0 0
BITMAP
ENDCHAR
STARTCHAR 245
ENCODING 245
SWIDTH 576 0
DWIDTH 8 0
BBX 0 0 0 0
BITMAP
ENDCHAR
STARTCHAR 246
ENCODING 246
SWIDTH 576 0
DWIDTH 8 0
BBX 0 0 0 0
BITMAP
ENDCHAR
STARTCHAR 247
ENCODING 247
SWIDTH 576 0
DWIDTH 8 0
BBX 0 0 0 0
BITMAP
ENDCHAR
STARTCHAR 248
ENCODING 248
SWIDTH 576 0
DWIDTH 8 0
BBX 0 0 0 0
BITMAP
ENDCHAR
STARTCHAR 249
ENCODING 249
SWIDTH 576 0
DWIDTH 8 0
BBX 0 0 0 0
BITMAP
ENDCHAR
STARTCHAR 250
ENCODING 250
SWIDTH 576 0
DWIDTH 8 0
BBX 0 0 0 0
BITMAP
ENDCHAR
STARTCHAR 251
ENCODING 251
SWIDTH 576 0
DWIDTH 8 0
BBX 0 0 0 0
BITMAP
ENDCHAR
STARTCHAR 252
ENCODING 252
SWIDTH 576 0
DWIDTH 8 0
BBX 0 0 0 0
BITMAP
ENDCHAR
STARTCHAR 253
ENCODING 253
SWIDTH 576 0
DWIDTH 8 0
BBX 0 0 0 0
BITMAP
ENDCHAR
STARTCHAR 254
ENCODING 254
SWIDTH 576 0
DWIDTH 8 0
BBX 0 0 0 0
BITMAP
ENDCHAR
STARTCHAR 255
ENCODING 255
SWIDTH 576 0
DWIDTH 8 0
BBX 0 0 0 0
BITMAP
ENDCHAR
ENDFONT
